Coordinates
version=1
nRows=18
nColumns=38
inDegrees=no

Units are S.I. units (second, meters, Newtons, ...)
If the header above contains a line with 'inDegrees', this indicates whether rotational values are in degrees (yes) or radians (no).

endheader
time	pelvis_tilt	pelvis_list	pelvis_rotation	pelvis_tx	pelvis_ty	pelvis_tz	hip_flexion_r	hip_adduction_r	hip_rotation_r	knee_angle_r	ankle_angle_r	subtalar_angle_r	mtp_angle_r	hip_flexion_l	hip_adduction_l	hip_rotation_l	knee_angle_l	ankle_angle_l	subtalar_angle_l	mtp_angle_l	lumbar_extension	lumbar_bending	lumbar_rotation	arm_flex_r	arm_add_r	arm_rot_r	elbow_flex_r	pro_sup_r	wrist_flex_r	wrist_dev_r	arm_flex_l	arm_add_l	arm_rot_l	elbow_flex_l	pro_sup_l	wrist_flex_l	wrist_dev_l
0.775	-0.116725	0.0312597	-0.0541722	0.888904	1.0283	-0.27673	0.478252	0.0761435	0.170075	-0.328532	0.261741	-0.0371035	0.00141215	-0.0569229	0.110285	0.0346093	-0.606407	-0.390274	-0.0750876	-0.00272192	-0.082859	0.0160239	-0.244342	-0.89824	-0.305405	-0.135823	1.67086	1.77874	-0.0038772	-0.00480395	-0.405303	-0.270774	0.0791166	2.1549	2.03128	0.0120258	-0.00886156
0.783333	-0.110309	0.0265936	-0.05637	0.888907	1.02399	-0.27608	0.469506	0.0853406	0.175151	-0.343683	0.229458	-0.0371035	0.00141215	-0.0425052	0.0983951	0.0142012	-0.674196	-0.353305	-0.0750876	-0.00272192	-0.0923245	0.0213635	-0.23542	-0.892803	-0.300836	-0.138744	1.67452	1.77315	-0.0038772	-0.00480395	-0.407587	-0.262971	0.0817001	2.14881	2.03055	0.0120258	-0.00886156
0.791667	-0.10428	0.0211414	-0.0590639	0.888691	1.01893	-0.275321	0.464122	0.0966708	0.179864	-0.367088	0.202265	-0.0371035	0.00141215	-0.026434	0.0849193	-0.00522763	-0.742765	-0.318695	-0.0750876	-0.00272192	-0.10158	0.0272796	-0.224822	-0.885604	-0.296892	-0.140557	1.67715	1.76745	-0.0038772	-0.00480395	-0.409296	-0.255167	0.0838127	2.14077	2.03041	0.0120258	-0.00886156
0.8	-0.0986362	0.0149389	-0.062248	0.888254	1.01315	-0.274462	0.462074	0.110085	0.184223	-0.398685	0.180433	-0.0371035	0.00141215	-0.00871767	0.0699226	-0.0236234	-0.812046	-0.28648	-0.0750876	-0.00272192	-0.110625	0.0337337	-0.212583	-0.876587	-0.293592	-0.141208	1.6787	1.76165	-0.0038772	-0.00480395	-0.410437	-0.247362	0.0854259	2.13073	2.03087	0.0120258	-0.00886156
0.808333	-0.0933617	0.00809208	-0.0658983	0.887602	1.00672	-0.273519	0.463227	0.125422	0.188263	-0.438211	0.16467	-0.0371035	0.00141215	0.0106094	0.0536122	-0.0408016	-0.881822	-0.256734	-0.0750876	-0.00272192	-0.119456	0.040607	-0.198829	-0.865561	-0.290988	-0.140519	1.679	1.75581	-0.0038772	-0.00480395	-0.411038	-0.239551	0.0864465	2.11855	2.032	0.0120258	-0.00886156
0.816667	-0.0884117	0.000799214	-0.0699592	0.88676	0.99976	-0.272516	0.467227	0.142341	0.192022	-0.485	0.156024	-0.0371035	0.00141215	0.0314554	0.0363749	-0.0564434	-0.951659	-0.229521	-0.0750876	-0.00272192	-0.128079	0.047676	-0.183828	-0.852154	-0.289182	-0.138135	1.67773	1.75008	-0.0038772	-0.00480395	-0.411179	-0.231722	0.0866868	2.10398	2.03392	0.0120258	-0.00886156
0.825	-0.0836993	-0.00665581	-0.0743309	0.885766	0.992498	-0.271479	0.473395	0.160299	0.195519	-0.537786	0.155503	-0.0371035	0.00141215	0.0536549	0.0187615	-0.0701256	-1.02087	-0.204806	-0.0750876	-0.00272192	-0.136501	0.0546284	-0.168023	-0.835799	-0.288328	-0.133525	1.67442	1.74472	-0.0038772	-0.00480395	-0.411021	-0.223839	0.0858626	2.08664	2.03679	0.0120258	-0.00886156
0.833333	-0.079093	-0.0139535	-0.0788628	0.884659	0.985196	-0.270428	0.480702	0.178576	0.198723	-0.594591	0.163582	-0.0371035	0.00141215	0.0769808	0.0014179	-0.0813824	-1.08856	-0.182388	-0.0750876	-0.00272192	-0.144721	0.0611107	-0.152014	-0.815802	-0.288606	-0.126043	1.66849	1.74009	-0.0038772	-0.00480395	-0.41083	-0.215857	0.0836322	2.06611	2.04082	0.0120258	-0.00886156
0.841667	-0.0744852	-0.0208109	-0.0833564	0.883471	0.978096	-0.269382	0.487838	0.196357	0.201546	-0.65281	0.179855	-0.0371035	0.00141215	0.101177	-0.0150196	-0.0897895	-1.15368	-0.161866	-0.0750876	-0.00272192	-0.152721	0.0667961	-0.136495	-0.791473	-0.290171	-0.115062	1.65943	1.73666	-0.0038772	-0.00480395	-0.410962	-0.20774	0.0796839	2.04204	2.04612	0.0120258	-0.00886156
0.85	-0.0698507	-0.0270213	-0.0875764	0.882221	0.971376	-0.268358	0.493404	0.212856	0.203868	-0.709501	0.20298	-0.0371035	0.00141215	0.126017	-0.0300441	-0.0950513	-1.21516	-0.142669	-0.0750876	-0.00272192	-0.160457	0.0714679	-0.122126	-0.762309	-0.293086	-0.100166	1.64694	1.7349	-0.0038772	-0.00480395	-0.411829	-0.199507	0.0738579	2.0143	2.05265	0.0120258	-0.00886156
0.858333	-0.0652641	-0.0324969	-0.0912792	0.88092	0.965174	-0.267376	0.496159	0.227445	0.205583	-0.761803	0.230919	-0.0371035	0.00141215	0.151366	-0.0433588	-0.0970691	-1.27203	-0.12415	-0.0750876	-0.00272192	-0.167846	0.0750693	-0.109364	-0.728203	-0.297241	-0.0813604	1.63114	1.73518	-0.0038772	-0.00480395	-0.413814	-0.191285	0.0662773	1.98311	2.06001	0.0120258	-0.00886156
0.866667	-0.0608482	-0.0372693	-0.0942586	0.879576	0.959613	-0.266463	0.495199	0.239747	0.206643	-0.807335	0.261358	-0.0371035	0.00141215	0.177172	-0.0549064	-0.0959613	-1.32347	-0.105718	-0.0750876	-0.00272192	-0.174811	0.0777238	-0.0983017	-0.689605	-0.302289	-0.0592391	1.61275	1.73775	-0.0038772	-0.00480395	-0.417184	-0.183357	0.0574392	1.94915	2.0674	0.0120258	-0.00886156
0.875	-0.0567336	-0.0414708	-0.0964051	0.878196	0.95482	-0.265646	0.490045	0.249654	0.20712	-0.844483	0.292103	-0.0371035	0.00141215	0.203432	-0.0648314	-0.0920836	-1.36888	-0.0869478	-0.0750876	-0.00272192	-0.181329	0.0796771	-0.0885737	-0.647579	-0.307641	-0.035028	1.59308	1.74261	-0.0038772	-0.00480395	-0.422025	-0.176165	0.048209	1.9136	2.07367	0.0120258	-0.00886156
0.883333	-0.0530703	-0.0452563	-0.0977447	0.876776	0.9509	-0.264936	0.480623	0.257268	0.207234	-0.872483	0.321349	-0.0371035	0.00141215	0.230124	-0.0733806	-0.0859985	-1.40785	-0.0676798	-0.0750876	-0.00272192	-0.187449	0.0811819	-0.0794245	-0.603673	-0.312549	-0.0104091	1.57393	1.74953	-0.0038772	-0.00480395	-0.428264	-0.170274	0.0396691	1.87808	2.07764	0.0120258	-0.00886156
0.891667	-0.0500319	-0.0486711	-0.098427	0.875318	0.947926	-0.264326	0.467222	0.262772	0.207332	-0.891282	0.347768	-0.0371035	0.00141215	0.257222	-0.0807713	-0.078402	-1.44007	-0.0480572	-0.0750876	-0.00272192	-0.193162	0.0823277	-0.0700359	-0.559533	-0.316314	0.0129661	1.55721	1.75799	-0.0038772	-0.00480395	-0.435836	-0.16625	0.0327572	1.84445	2.0784	0.0120258	-0.00886156
0.9	-0.0477923	-0.051621	-0.0986914	0.873832	0.945924	-0.263795	0.450379	0.266325	0.207834	-0.901344	0.37051	-0.0371035	0.00141215	0.284667	-0.087104	-0.0700371	-1.4653	-0.028464	-0.0750876	-0.00272192	-0.198338	0.0829948	-0.0597193	-0.516668	-0.318422	0.0337652	1.54461	1.76722	-0.0038772	-0.00480395	-0.444746	-0.16457	0.0280906	1.8146	2.07563	0.0120258	-0.00886156
0.908333	-0.0465032	-0.0538947	-0.0987937	0.872347	0.944886	-0.263319	0.430742	0.268003	0.209143	-0.903434	0.389133	-0.0371035	0.00141215	0.312341	-0.0923258	-0.0615931	-1.48337	-0.00940032	-0.0750876	-0.00272192	-0.202729	0.0829053	-0.0480336	-0.476319	-0.318613	0.0511168	1.53747	1.77622	-0.0038772	-0.00480395	-0.455063	-0.165543	0.0259144	1.79013	2.06973	0.0120258	-0.00886156
0.916667	-0.0462705	-0.0552188	-0.0989113	0.870907	0.944779	-0.262879	0.408936	0.267765	0.211527	-0.89843	0.403493	-0.0371035	0.00141215	0.340037	-0.0962395	-0.0536063	-1.49417	0.00865125	-0.0750876	-0.00272192	-0.205995	0.0817278	-0.0348558	-0.439411	-0.316904	0.0646425	1.53657	1.78388	-0.0038772	-0.00480395	-0.466891	-0.169257	0.0261209	1.77218	2.06172	0.0120258	-0.00886156
